<svg xmlns="http://www.w3.org/2000/svg" viewBox="0 0 50 50" width="100px" height="100px">
    <path fill="#fff" d="M 25 -0.00390625 C 24.434808 -0.00390625 23.868582 0.20954279 23.443359 0.63476562 L 0.63476562 23.445312 C -0.21568003 24.295759 -0.21568003 25.706195 0.63476562 26.556641 L 23.443359 49.365234 C 24.293851 50.215726 25.704188 50.216033 26.554688 49.365234 L 49.365234 26.556641 C 50.21568 25.706195 50.21568 24.295759 49.365234 23.445312 L 26.554688 0.63476562 C 26.129465 0.20954279 25.565192 -0.00390625 25 -0.00390625 z M 24.998047 1.9824219 C 25.04696 1.9824219 25.096848 2.0050511 25.140625 2.0488281 L 47.951172 24.859375 C 48.038722 24.946925 48.038722 25.055024 47.951172 25.142578 L 25.140625 47.953125 C 25.054985 48.038955 24.944474 48.038272 24.857422 47.951172 L 2.0488281 25.142578 C 1.9612741 25.055028 1.9612741 24.946929 2.0488281 24.859375 L 24.857422 2.0488281 C 24.901197 2.0050511 24.949134 1.9824219 24.998047 1.9824219 z M 21 10 L 21 13 L 17 13 L 17 24 L 21 24 L 21 27 L 29 27 L 29 24 L 30 24 C 32.749516 24 35 21.749516 35 19 L 35 18 C 35 15.250484 32.749516 13 30 13 L 29 13 L 29 10 L 21 10 z M 23 12 L 27 12 L 27 14 L 27 15 L 27 22 L 27 23 L 27 25 L 23 25 L 23 22 L 23 14 L 23 12 z M 19 15 L 21 15 L 21 22 L 19 22 L 19 15 z M 29 15 L 30 15 C 31.668484 15 33 16.331516 33 18 L 33 19 C 33 20.668484 31.668484 22 30 22 L 29 22 L 29 15 z M 4.5859375 25 L 25 45.414062 L 45.414062 25 L 43 25 L 34.585938 25 L 25 34.585938 L 15.414062 25 L 4.5859375 25 z M 9.4140625 27 L 14.585938 27 L 25 37.414062 L 35.414062 27 L 40.585938 27 L 25 42.585938 L 9.4140625 27 z"/>
</svg>